#!OML:ASF E:\basketball\basketball\Project 1\Capture day 1\Session 1\Subject.ASF
:FULLY-SPECIFIED
:DEGREES
1
root -36.6766 15.7747 -14.4194 1.24999 70.9147 -4.47591
lowerback -5.90465 1.47353 -0.829487
upperback 3.54998 2.03777 0.376453
thorax 6.98181 0.958605 1.10086
lowerneck -14.3289 -4.2343 -11.4779
upperneck 23.1027 -6.34593 14.1565
head 10.5967 -2.23563 6.2618
rclavicle -4.09248e-014 1.43125e-014
rhumerus -40.3904 19.6422 -104.067
rradius 98.347
rwrist -38.4881
rhand -26.4578 33.1926
rfingers 7.12502
rthumb 0.103585 3.21291
lclavicle -4.09248e-014 1.43125e-014
lhumerus -31.473 -10.4101 103.876
lradius 49.4932
lwrist 7.17406
lhand -20.2762 22.2917
lfingers 7.12502
lthumb 6.07313 52.1846
rfemur -13.9609 4.77585 24.1076
rtibia 37.4952
rfoot -27.2716 -18.4722
rtoes 4.10844
lfemur -10.8796 2.70112 -14.4744
ltibia 31.5904
lfoot -16.6086 -4.40948
ltoes 8.82272
2
root -36.6748 15.7735 -14.4181 1.16789 70.8452 -4.58628
lowerback -5.90281 1.43621 -0.875669
upperback 3.53574 1.98356 0.504506
thorax 6.96076 0.926652 1.25391
lowerneck -13.2836 -4.59574 -11.8279
upperneck 22.4774 -6.96275 14.7708
head 10.2987 -2.52707 6.44495
rclavicle -3.16813e-014 9.59136e-015
rhumerus -40.5357 19.7491 -104.008
rradius 98.4319
rwrist -38.4298
rhand -26.3058 33.0514
rfingers 7.12502
rthumb 0.250348 3.0718
lclavicle -3.16813e-014 9.59136e-015
lhumerus -31.7436 -10.2089 103.949
lradius 49.8502
lwrist 7.37654
lhand -20.2832 22.4696
lfingers 7.12502
lthumb 6.06639 52.3627
rfemur -13.9348 4.87542 24.1282
rtibia 37.4502
rfoot -26.5483 -18.3997
rtoes 3.972
lfemur -10.9022 2.63428 -14.4288
ltibia 31.6086
lfoot -16.8663 -4.26509
ltoes 7.31534
3
root -36.673 15.772 -14.4187 1.55401 70.8302 -4.16601
lowerback -5.89177 1.41131 -1.05135
upperback 3.54997 1.96381 0.539668
thorax 6.96315 0.907707 1.38677
lowerneck -14.7523 -5.58969 -11.2442
upperneck 24.0176 -8.34253 13.9479
head 11.3198 -3.11495 5.88636
rclavicle 1.34987e-014 -4.67144e-015
rhumerus -40.609 19.7156 -103.938
rradius 98.4956
rwrist -38.3046
rhand -25.8034 32.9035
rfingers 7.12502
rthumb 0.735655 2.92501
lclavicle 1.34987e-014 -4.67144e-015
lhumerus -31.8411 -9.88281 103.963
lradius 49.8411
lwrist 7.34583
lhand -20.2686 22.4257
lfingers 7.12502
lthumb 6.08053 52.3184
rfemur -13.9158 4.95162 23.9517
rtibia 37.5127
rfoot -25.791 -18.2121
rtoes 4.62666
lfemur -10.8687 2.60367 -14.5869
ltibia 31.6001
lfoot -17.0794 -4.21483
ltoes 5.88531
4
root -36.671 15.7672 -14.4176 1.61298 70.8222 -4.1109
lowerback -5.93703 1.37724 -1.13572
upperback 3.6216 1.9216 0.631382
thorax 7.06117 0.879386 1.52812
lowerneck -14.5478 -5.33379 -11.5542
upperneck 23.5109 -7.89365 14.0323
head 11.0358 -2.95018 6.01967
rclavicle -6.09275e-014 1.21756e-015
rhumerus -40.5373 19.9359 -103.793
rradius 98.5471
rwrist -38.3756
rhand -25.6711 32.7246
rfingers 7.12502
rthumb 0.863365 2.74657
lclavicle -6.09275e-014 1.21756e-015
lhumerus -31.3436 -9.06158 103.716
lradius 49.9797
lwrist 7.22503
lhand -20.2383 22.391
lfingers 7.12502
lthumb 6.10977 52.2829
rfemur -13.9445 4.6574 23.9194
rtibia 37.5675
rfoot -25.8134 -18.2597
rtoes 3.254
lfemur -10.8805 2.6227 -14.6121
ltibia 31.6112
lfoot -17.2712 -4.12112
ltoes 5.41798
5
root -36.6689 15.7642 -14.4168 1.75319 70.8065 -3.96642
lowerback -5.95874 1.34713 -1.24258
upperback 3.66616 1.887 0.70848
thorax 7.11661 0.854482 1.66637
lowerneck -14.7068 -5.52597 -11.5956
upperneck 23.5716 -8.12507 13.9187
head 11.1237 -3.06674 5.94869
rclavicle -1.62945e-014 1.93796e-015
rhumerus -40.5237 20.0921 -103.676
rradius 98.5991
rwrist -38.3725
rhand -25.5108 32.6151
rfingers 7.12502
rthumb 1.01821 2.63782
lclavicle -1.62945e-014 1.93796e-015
lhumerus -31.1406 -8.52852 103.606
lradius 50.1008
lwrist 7.19263
lhand -20.2256 22.3943
lfingers 7.12502
lthumb 6.12199 52.2859
rfemur -13.9624 4.53571 23.8514
rtibia 37.6395
rfoot -25.5085 -18.2031
rtoes 2.69814
lfemur -10.882 2.63037 -14.6696
ltibia 31.6227
lfoot -17.4805 -4.01723
ltoes 4.35542
6
root -36.6668 15.7611 -14.4156 1.90385 70.7942 -3.8097
lowerback -5.98091 1.31979 -1.35058
upperback 3.71663 1.85676 0.779669
thorax 7.17894 0.831601 1.79982
lowerneck -14.8693 -5.64177 -11.6541
upperneck 23.5797 -8.23562 13.7986
head 11.1738 -3.13181 5.89363
rclavicle -4.81618e-014 -6.33626e-015
rhumerus -40.4844 20.2711 -103.553
rradius 98.6395
rwrist -38.3731
rhand -25.4177 32.5428
rfingers 7.12502
rthumb 1.10816 2.56596
lclavicle -4.81618e-014 -6.33626e-015
lhumerus -30.904 -8.0035 103.485
lradius 50.2093
lwrist 7.15531
lhand -20.2087 22.3961
lfingers 7.12502
lthumb 6.13829 52.2872
rfemur -13.9818 4.38919 23.7809
rtibia 37.7153
rfoot -25.2582 -18.1446
rtoes 2.06928
lfemur -10.8963 2.65881 -14.7323
ltibia 31.6632
lfoot -17.6897 -3.89187
ltoes 3.20933
7
root -36.6646 15.7581 -14.4139 2.04957 70.7795 -3.65862
lowerback -5.9984 1.2978 -1.45174
upperback 3.76641 1.83353 0.843698
thorax 7.23823 0.812606 1.92265
lowerneck -14.8823 -5.67251 -11.7708
upperneck 23.4256 -8.22938 13.7633
head 11.1216 -3.14762 5.89366
rclavicle -1.0107e-014 4.47266e-015
rhumerus -40.4349 20.4626 -103.438
rradius 98.672
rwrist -38.3683
rhand -25.3954 32.4987
rfingers 7.12502
rthumb 1.12969 2.52199
lclavicle -1.0107e-014 4.47266e-015
lhumerus -30.6818 -7.5324 103.364
lradius 50.3213
lwrist 7.13507
lhand -20.1923 22.4108
lfingers 7.12502
lthumb 6.15413 52.3014
rfemur -13.9966 4.22979 23.7141
rtibia 37.7782
rfoot -25.0421 -18.081
rtoes 1.3802
lfemur -10.918 2.71126 -14.7914
ltibia 31.7174
lfoot -17.8792 -3.73254
ltoes 1.90901
